<svg xmlns="http://www.w3.org/2000/svg" xmlns:xlink="http://www.w3.org/1999/xlink" width="2000" zoomAndPan="magnify" viewBox="0 0 1500 1499.999933" height="2000" preserveAspectRatio="xMidYMid meet" version="1.0"><defs><g/><clipPath id="26ed4b4c9a"><path d="M 254.683594 411 L 1106.683594 411 L 1106.683594 792.175781 L 254.683594 792.175781 Z M 254.683594 411 " clip-rule="nonzero"/></clipPath><clipPath id="e1178bef52"><path d="M 232.65625 771.777344 L 254.683594 771.777344 L 254.683594 793.804688 L 232.65625 793.804688 Z M 232.65625 771.777344 " clip-rule="nonzero"/></clipPath><clipPath id="c014616ab9"><path d="M 243.667969 771.777344 C 237.585938 771.777344 232.65625 776.707031 232.65625 782.789062 C 232.65625 788.875 237.585938 793.804688 243.667969 793.804688 C 249.75 793.804688 254.683594 788.875 254.683594 782.789062 C 254.683594 776.707031 249.75 771.777344 243.667969 771.777344 Z M 243.667969 771.777344 " clip-rule="nonzero"/></clipPath><clipPath id="de75046df3"><path d="M 0.65625 0.777344 L 22.683594 0.777344 L 22.683594 22.804688 L 0.65625 22.804688 Z M 0.65625 0.777344 " clip-rule="nonzero"/></clipPath><clipPath id="b875849d72"><path d="M 11.667969 0.777344 C 5.585938 0.777344 0.65625 5.707031 0.65625 11.789062 C 0.65625 17.875 5.585938 22.804688 11.667969 22.804688 C 17.75 22.804688 22.683594 17.875 22.683594 11.789062 C 22.683594 5.707031 17.75 0.777344 11.667969 0.777344 Z M 11.667969 0.777344 " clip-rule="nonzero"/></clipPath><clipPath id="074f45faea"><rect x="0" width="23" y="0" height="23"/></clipPath><clipPath id="9c37c5f6d4"><path d="M 1118.410156 771.777344 L 1140.4375 771.777344 L 1140.4375 793.804688 L 1118.410156 793.804688 Z M 1118.410156 771.777344 " clip-rule="nonzero"/></clipPath><clipPath id="9ed9879f7b"><path d="M 1129.421875 771.777344 C 1123.339844 771.777344 1118.410156 776.707031 1118.410156 782.789062 C 1118.410156 788.875 1123.339844 793.804688 1129.421875 793.804688 C 1135.503906 793.804688 1140.4375 788.875 1140.4375 782.789062 C 1140.4375 776.707031 1135.503906 771.777344 1129.421875 771.777344 Z M 1129.421875 771.777344 " clip-rule="nonzero"/></clipPath><clipPath id="4e40e552c0"><path d="M 0.410156 0.777344 L 22.4375 0.777344 L 22.4375 22.804688 L 0.410156 22.804688 Z M 0.410156 0.777344 " clip-rule="nonzero"/></clipPath><clipPath id="b9abff4624"><path d="M 11.421875 0.777344 C 5.339844 0.777344 0.410156 5.707031 0.410156 11.789062 C 0.410156 17.875 5.339844 22.804688 11.421875 22.804688 C 17.503906 22.804688 22.4375 17.875 22.4375 11.789062 C 22.4375 5.707031 17.503906 0.777344 11.421875 0.777344 Z M 11.421875 0.777344 " clip-rule="nonzero"/></clipPath><clipPath id="00835341ec"><rect x="0" width="23" y="0" height="23"/></clipPath><clipPath id="868e0f7c80"><rect x="0" width="536" y="0" height="214"/></clipPath><clipPath id="99ccc2970d"><rect x="0" width="414" y="0" height="73"/></clipPath></defs><g clip-path="url(#26ed4b4c9a)"><path fill="#dd9f3c" d="M 871.105469 734.664062 C 891.140625 734.664062 911.175781 734.664062 931.230469 734.664062 C 901.671875 651.6875 849.332031 643.410156 786.992188 668.023438 C 826.21875 664.632812 856.96875 680.675781 871.105469 734.664062 M 927.382812 528.378906 C 879.273438 513.820312 830.285156 505.03125 780.636719 500.726562 C 776.003906 492.8125 771.039062 485.984375 765.746094 480.105469 C 793.640625 483.144531 820.324219 489.554688 846.894531 496.3125 C 816.859375 484.757812 786.679688 473.730469 754.503906 469.390625 C 723.078125 443.953125 682.035156 444.8125 633.117188 451.9375 C 746.976562 417.617188 863.726562 453.347656 927.382812 528.378906 Z M 617.84375 708.933594 L 633.210938 708.933594 C 631.066406 620.972656 628.90625 532.996094 626.765625 445.035156 C 626.179688 420.96875 607.496094 409.066406 584.40625 412.214844 C 584.53125 418.863281 584.679688 425.511719 584.808594 432.160156 C 603.195312 430.527344 608.210938 436.28125 608.964844 452.324219 L 616.070312 605.023438 Z M 720.898438 570.628906 C 732.398438 570.628906 741.738281 582.535156 741.738281 597.238281 C 741.738281 607.21875 737.433594 615.917969 731.042969 620.480469 L 730.894531 621.925781 C 730.75 623.335938 730.859375 624.800781 731.554688 626.066406 C 735.089844 632.457031 752.46875 630.257812 758.054688 629.472656 L 760.492188 629.125 L 761.1875 633.996094 L 758.75 634.34375 C 750.328125 635.535156 732.34375 637.640625 727.25 628.445312 C 726.316406 626.761719 725.933594 624.929688 725.933594 623.0625 C 724.320312 623.574219 722.636719 623.847656 720.898438 623.847656 C 709.394531 623.847656 700.054688 611.945312 700.054688 597.238281 C 700.054688 593.007812 700.824219 589.015625 702.199219 585.464844 C 704.339844 591.671875 707.144531 597.515625 710.804688 602.917969 C 710 593.871094 708.5 585.042969 708.71875 575.664062 C 712.144531 572.496094 716.355469 570.628906 720.898438 570.628906 Z M 692.511719 515.175781 L 736.703125 515.175781 L 717.015625 521.128906 L 699.101562 521.128906 C 682.273438 521.128906 668.519531 534.898438 668.519531 551.710938 L 668.519531 639.582031 C 668.519531 656.410156 682.292969 670.164062 699.101562 670.164062 L 711.152344 670.164062 L 736.703125 676.117188 L 692.527344 676.117188 C 674.363281 676.117188 659.492188 661.246094 659.492188 643.078125 L 659.492188 548.214844 C 659.492188 530.027344 674.34375 515.175781 692.511719 515.175781 Z M 799.773438 719.136719 C 820.6875 717.488281 837.628906 738.640625 837.628906 766.367188 C 837.628906 768.015625 837.574219 769.664062 837.445312 771.292969 L 824.003906 771.292969 C 823.691406 743.949219 806.863281 723.21875 786.148438 724.851562 C 785.324219 724.921875 784.519531 725.015625 783.714844 725.144531 C 788.585938 721.71875 794.023438 719.59375 799.773438 719.136719 Z M 801.332031 710.34375 C 826.675781 708.347656 847.242188 733.988281 847.242188 767.613281 C 847.242188 775.855469 846 783.820312 843.765625 791.164062 L 757.121094 791.164062 C 756.023438 786.019531 755.417969 780.542969 755.417969 774.847656 C 755.417969 741.222656 775.964844 712.339844 801.332031 710.34375 Z M 742.542969 791.183594 L 266.203125 791.183594 L 266.203125 766.496094 L 743.878906 709.265625 L 743.714844 719.171875 L 593.101562 736.535156 L 604.457031 766.054688 L 688.003906 766.441406 L 608.46875 776.476562 L 731.976562 776.476562 L 735.492188 750.875 L 743.292969 745.746094 Z M 593.671875 453.605469 L 254.683594 621.851562 L 593.671875 495.085938 Z M 594.257812 656.007812 L 254.683594 748.621094 L 594.257812 697.488281 Z M 593.671875 521.988281 L 254.683594 659.6875 L 593.671875 563.46875 Z M 593.671875 593.429688 L 254.683594 706.535156 L 593.671875 634.929688 Z M 1106.402344 792.0625 C 1030.472656 788.472656 954.542969 784.882812 878.597656 781.3125 C 898.558594 779.808594 918.519531 778.289062 938.484375 776.789062 C 938.738281 769.664062 938.976562 762.519531 939.234375 755.398438 C 985.4375 755.34375 1031.625 755.304688 1077.832031 755.25 C 1038.914062 749.574219 1000 743.878906 961.082031 738.199219 C 951.761719 736.84375 947.824219 732.136719 947.4375 722.726562 L 946.136719 691.355469 C 978.078125 691.71875 1009.742188 693.167969 1041.277344 695.109375 C 1009.871094 689.230469 978.058594 684.558594 945.714844 681.429688 L 945.386719 673.386719 C 977.34375 674.6875 1009.320312 677.140625 1041.277344 680.035156 C 1009.246094 673.277344 977.179688 667.125 944.964844 663.316406 L 944.472656 651.246094 C 977.492188 652.234375 1009.613281 655.441406 1041.09375 660.257812 C 1009.980469 649.671875 977.4375 641.046875 943.757812 634.03125 C 908.355469 619.601562 871.214844 609.984375 833.765625 601.214844 C 873.15625 600.132812 911.761719 603.8125 949.617188 611.964844 C 901.78125 593.410156 848.542969 585.664062 793.035156 582.476562 C 784.117188 561.546875 775.195312 540.59375 766.277344 519.664062 C 769.832031 519.664062 773.382812 519.679688 776.9375 519.679688 C 784.023438 531.070312 791.113281 542.460938 798.179688 553.855469 C 843.359375 559.789062 888.558594 565.738281 933.738281 571.671875 C 933.484375 563.285156 929.730469 555.246094 924.34375 547.371094 C 946.796875 558.101562 965.679688 577.660156 977.363281 615.023438 C 1022.339844 631.613281 1071.863281 644.890625 1075.761719 691.519531 C 1086.621094 698.054688 1105.777344 724.117188 1105.90625 737.613281 C 1106.054688 755.746094 1106.238281 773.894531 1106.402344 792.0625 Z M 1106.402344 792.0625 " fill-opacity="1" fill-rule="evenodd"/></g><g clip-path="url(#e1178bef52)"><g clip-path="url(#c014616ab9)"><g transform="matrix(1, 0, 0, 1, 232, 771)"><g clip-path="url(#074f45faea)"><g clip-path="url(#de75046df3)"><g clip-path="url(#b875849d72)"><path fill="#5d5855" d="M 0.65625 0.777344 L 22.683594 0.777344 L 22.683594 22.804688 L 0.65625 22.804688 Z M 0.65625 0.777344 " fill-opacity="1" fill-rule="nonzero"/></g></g></g></g></g></g><g clip-path="url(#9c37c5f6d4)"><g clip-path="url(#9ed9879f7b)"><g transform="matrix(1, 0, 0, 1, 1118, 771)"><g clip-path="url(#00835341ec)"><g clip-path="url(#4e40e552c0)"><g clip-path="url(#b9abff4624)"><path fill="#5d5855" d="M 0.410156 0.777344 L 22.4375 0.777344 L 22.4375 22.804688 L 0.410156 22.804688 Z M 0.410156 0.777344 " fill-opacity="1" fill-rule="nonzero"/></g></g></g></g></g></g><g transform="matrix(1, 0, 0, 1, 579, 857)"><g clip-path="url(#868e0f7c80)"><g fill="#dd9f3c" fill-opacity="1"><g transform="translate(2.489047, 168.290146)"><g><path d="M 78.640625 -138.859375 C 94.210938 -138.859375 106.175781 -135.035156 114.53125 -127.390625 C 122.894531 -119.753906 127.078125 -108.863281 127.078125 -94.71875 C 127.078125 -83.71875 124.503906 -74.035156 119.359375 -65.671875 C 114.222656 -57.316406 106.9375 -50.816406 97.5 -46.171875 C 88.070312 -41.535156 77.21875 -39.21875 64.9375 -39.21875 L 54.4375 -39.21875 L 55.9375 0 L 12.859375 0 L 15 -40.71875 L 12.859375 -138.65625 Z M 70.9375 -69.21875 C 74.789062 -71.363281 77.609375 -74.113281 79.390625 -77.46875 C 81.179688 -80.820312 82.078125 -85.144531 82.078125 -90.4375 C 82.078125 -96.71875 80.578125 -101.320312 77.578125 -104.25 C 74.578125 -107.1875 69.863281 -108.796875 63.4375 -109.078125 L 55.71875 -108.4375 L 54.859375 -70.078125 Z M 70.9375 -69.21875 "/></g></g></g><g fill="#dd9f3c" fill-opacity="1"><g transform="translate(123.976355, 168.290146)"><g><path d="M 54.21875 -45 L 55.9375 0 L 12.859375 0 L 15 -40.71875 L 12.859375 -138.65625 L 56.578125 -138.65625 Z M 54.21875 -45 "/></g></g></g><g fill="#dd9f3c" fill-opacity="1"><g transform="translate(188.469027, 168.290146)"><g><path d="M 78.640625 -138.859375 C 94.210938 -138.859375 106.175781 -135.035156 114.53125 -127.390625 C 122.894531 -119.753906 127.078125 -108.863281 127.078125 -94.71875 C 127.078125 -83.71875 124.503906 -74.035156 119.359375 -65.671875 C 114.222656 -57.316406 106.9375 -50.816406 97.5 -46.171875 C 88.070312 -41.535156 77.21875 -39.21875 64.9375 -39.21875 L 54.4375 -39.21875 L 55.9375 0 L 12.859375 0 L 15 -40.71875 L 12.859375 -138.65625 Z M 70.9375 -69.21875 C 74.789062 -71.363281 77.609375 -74.113281 79.390625 -77.46875 C 81.179688 -80.820312 82.078125 -85.144531 82.078125 -90.4375 C 82.078125 -96.71875 80.578125 -101.320312 77.578125 -104.25 C 74.578125 -107.1875 69.863281 -108.796875 63.4375 -109.078125 L 55.71875 -108.4375 L 54.859375 -70.078125 Z M 70.9375 -69.21875 "/></g></g></g><g fill="#dd9f3c" fill-opacity="1"><g transform="translate(309.956335, 168.290146)"><g><path d="M 110.796875 -34.28125 L 113.15625 -31.28125 L 110.578125 0 L 12.859375 0 L 15 -40.71875 L 12.859375 -138.65625 L 112.296875 -138.65625 L 114.65625 -135.65625 L 111.859375 -104.359375 L 77.796875 -105.640625 L 55.71875 -105.640625 L 55.28125 -86.140625 L 76.5 -86.140625 L 98.796875 -86.796875 L 101.140625 -83.796875 L 98.578125 -52.5 L 73.71875 -53.140625 L 54.4375 -53.140625 L 54.21875 -45 L 54.640625 -33 L 75.21875 -33 Z M 110.796875 -34.28125 "/></g></g></g><g fill="#dd9f3c" fill-opacity="1"><g transform="translate(420.301816, 168.290146)"><g><path d="M 65.359375 -141.21875 C 78.929688 -141.21875 92.359375 -138.71875 105.640625 -133.71875 L 98.796875 -98.796875 L 92.796875 -96.21875 C 86.796875 -99.9375 80.863281 -102.863281 75 -105 C 69.144531 -107.144531 64.429688 -108.21875 60.859375 -108.21875 C 57.578125 -108.21875 54.96875 -107.570312 53.03125 -106.28125 C 51.101562 -105 50.140625 -103.285156 50.140625 -101.140625 C 50.140625 -98.429688 51.601562 -96.113281 54.53125 -94.1875 C 57.46875 -92.257812 62.363281 -89.722656 69.21875 -86.578125 C 77.21875 -83.003906 83.785156 -79.679688 88.921875 -76.609375 C 94.066406 -73.535156 98.566406 -69.320312 102.421875 -63.96875 C 106.285156 -58.613281 108.21875 -52.003906 108.21875 -44.140625 C 108.21875 -35.429688 105.820312 -27.539062 101.03125 -20.46875 C 96.25 -13.394531 89.429688 -7.785156 80.578125 -3.640625 C 71.722656 0.503906 61.4375 2.578125 49.71875 2.578125 C 35.144531 2.578125 19.859375 -0.140625 3.859375 -5.578125 L 10.078125 -42.859375 L 14.359375 -45.4375 C 20.929688 -40.4375 27.96875 -36.46875 35.46875 -33.53125 C 42.96875 -30.601562 49.21875 -29.140625 54.21875 -29.140625 C 58.21875 -29.140625 61.109375 -29.816406 62.890625 -31.171875 C 64.679688 -32.535156 65.578125 -34.21875 65.578125 -36.21875 C 65.578125 -39.21875 64.039062 -41.753906 60.96875 -43.828125 C 57.894531 -45.898438 52.929688 -48.4375 46.078125 -51.4375 C 38.210938 -54.863281 31.742188 -58.113281 26.671875 -61.1875 C 21.609375 -64.257812 17.21875 -68.472656 13.5 -73.828125 C 9.78125 -79.179688 7.921875 -85.785156 7.921875 -93.640625 C 7.921875 -102.640625 10.347656 -110.75 15.203125 -117.96875 C 20.066406 -125.1875 26.851562 -130.863281 35.5625 -135 C 44.28125 -139.144531 54.210938 -141.21875 65.359375 -141.21875 Z M 65.359375 -141.21875 "/></g></g></g></g></g><g transform="matrix(1, 0, 0, 1, 280, 800)"><g clip-path="url(#99ccc2970d)"><g fill="#ffffff" fill-opacity="1"><g transform="translate(1.394941, 57.139692)"><g><path d="M 36.875 -45.5 L 36.09375 -35.015625 L 26.59375 -35.4375 L 25.734375 -35.4375 L 25.375 -15.09375 L 25.953125 0 L 11.578125 0 L 12.296875 -13.65625 L 11.9375 -35.4375 L 11 -35.4375 L 1.4375 -35.015625 L 0.578125 -36.015625 L 1.359375 -46.515625 L 36.09375 -46.515625 Z M 36.875 -45.5 "/></g></g></g><g fill="#ffffff" fill-opacity="1"><g transform="translate(36.833334, 57.139692)"><g><path d="M 34.9375 -18.328125 C 38.382812 -12.960938 41.835938 -7.976562 45.296875 -3.375 L 45.078125 -1.796875 C 40.191406 -0.304688 35.375 0.578125 30.625 0.859375 L 29.265625 -0.28125 L 28.390625 -2.078125 C 28.015625 -2.847656 27.25 -4.46875 26.09375 -6.9375 C 24.945312 -9.40625 23.941406 -11.71875 23.078125 -13.875 L 18.265625 -13.875 L 18.765625 0 L 4.3125 0 L 5.03125 -13.65625 L 4.3125 -46.515625 L 26.390625 -46.578125 C 31.609375 -46.578125 35.628906 -45.34375 38.453125 -42.875 C 41.285156 -40.414062 42.703125 -36.859375 42.703125 -32.203125 C 42.703125 -29.472656 42.019531 -26.910156 40.65625 -24.515625 C 39.289062 -22.117188 37.382812 -20.054688 34.9375 -18.328125 Z M 27.53125 -30.765625 C 27.53125 -32.679688 27.039062 -34.109375 26.0625 -35.046875 C 25.082031 -35.984375 23.488281 -36.5 21.28125 -36.59375 L 18.6875 -36.375 L 18.40625 -24.375 L 23.65625 -24.078125 C 25 -24.703125 25.976562 -25.539062 26.59375 -26.59375 C 27.21875 -27.65625 27.53125 -29.046875 27.53125 -30.765625 Z M 27.53125 -30.765625 "/></g></g></g><g fill="#ffffff" fill-opacity="1"><g transform="translate(80.32274, 57.139692)"><g><path d="M 44.359375 0 L 29.765625 0 L 28.46875 -7.6875 L 28.390625 -7.90625 L 21.34375 -8.046875 L 15.453125 -7.765625 L 14.234375 0 L 0.140625 0 L 14.234375 -46.515625 L 31.625 -46.515625 Z M 26.234375 -18.40625 L 23.078125 -33.640625 L 22.21875 -33.640625 L 18.1875 -18.40625 L 22.21875 -18.328125 Z M 26.234375 -18.40625 "/></g></g></g><g fill="#ffffff" fill-opacity="1"><g transform="translate(123.524608, 57.139692)"><g><path d="M 45.9375 -15.171875 L 46.515625 0 L 30.84375 0 L 17.75 -24.875 L 16.890625 -24.875 L 16.828125 -16.828125 L 17.390625 0 L 4.3125 0 L 5.03125 -13.65625 L 4.3125 -46.515625 L 19.984375 -46.515625 L 33.0625 -21.640625 L 33.9375 -21.640625 L 33.5 -46.015625 L 46.734375 -46.796875 Z M 45.9375 -15.171875 "/></g></g></g><g fill="#ffffff" fill-opacity="1"><g transform="translate(172.692842, 57.139692)"><g><path d="M 21.921875 -47.375 C 26.472656 -47.375 30.976562 -46.535156 35.4375 -44.859375 L 33.140625 -33.140625 L 31.125 -32.28125 C 29.113281 -33.519531 27.125 -34.5 25.15625 -35.21875 C 23.195312 -35.945312 21.617188 -36.3125 20.421875 -36.3125 C 19.316406 -36.3125 18.441406 -36.09375 17.796875 -35.65625 C 17.148438 -35.226562 16.828125 -34.65625 16.828125 -33.9375 C 16.828125 -33.019531 17.316406 -32.238281 18.296875 -31.59375 C 19.273438 -30.945312 20.914062 -30.097656 23.21875 -29.046875 C 25.90625 -27.847656 28.109375 -26.734375 29.828125 -25.703125 C 31.554688 -24.671875 33.066406 -23.253906 34.359375 -21.453125 C 35.660156 -19.660156 36.3125 -17.445312 36.3125 -14.8125 C 36.3125 -11.882812 35.503906 -9.234375 33.890625 -6.859375 C 32.285156 -4.492188 30 -2.613281 27.03125 -1.21875 C 24.0625 0.164062 20.609375 0.859375 16.671875 0.859375 C 11.785156 0.859375 6.660156 -0.0507812 1.296875 -1.875 L 3.375 -14.375 L 4.8125 -15.234375 C 7.019531 -13.554688 9.378906 -12.226562 11.890625 -11.25 C 14.410156 -10.269531 16.507812 -9.78125 18.1875 -9.78125 C 19.53125 -9.78125 20.5 -10.003906 21.09375 -10.453125 C 21.695312 -10.910156 22 -11.476562 22 -12.15625 C 22 -13.15625 21.484375 -14.003906 20.453125 -14.703125 C 19.421875 -15.398438 17.753906 -16.25 15.453125 -17.25 C 12.816406 -18.40625 10.644531 -19.5 8.9375 -20.53125 C 7.238281 -21.5625 5.765625 -22.972656 4.515625 -24.765625 C 3.273438 -26.566406 2.65625 -28.785156 2.65625 -31.421875 C 2.65625 -34.429688 3.46875 -37.144531 5.09375 -39.5625 C 6.726562 -41.988281 9.003906 -43.894531 11.921875 -45.28125 C 14.847656 -46.675781 18.179688 -47.375 21.921875 -47.375 Z M 21.921875 -47.375 "/></g></g></g><g fill="#ffffff" fill-opacity="1"><g transform="translate(208.778187, 57.139692)"><g><path d="M 26.390625 -46.578125 C 31.609375 -46.578125 35.617188 -45.296875 38.421875 -42.734375 C 41.222656 -40.171875 42.625 -36.519531 42.625 -31.78125 C 42.625 -28.082031 41.757812 -24.832031 40.03125 -22.03125 C 38.3125 -19.226562 35.867188 -17.046875 32.703125 -15.484375 C 29.546875 -13.929688 25.90625 -13.15625 21.78125 -13.15625 L 18.265625 -13.15625 L 18.765625 0 L 4.3125 0 L 5.03125 -13.65625 L 4.3125 -46.515625 Z M 23.796875 -23.21875 C 25.085938 -23.9375 26.03125 -24.859375 26.625 -25.984375 C 27.226562 -27.109375 27.53125 -28.5625 27.53125 -30.34375 C 27.53125 -32.445312 27.023438 -33.988281 26.015625 -34.96875 C 25.015625 -35.957031 23.4375 -36.5 21.28125 -36.59375 L 18.6875 -36.375 L 18.40625 -23.515625 Z M 23.796875 -23.21875 "/></g></g></g><g fill="#ffffff" fill-opacity="1"><g transform="translate(249.535996, 57.139692)"><g><path d="M 24.515625 -47.375 C 31.273438 -47.375 36.5 -45.375 40.1875 -41.375 C 43.875 -37.375 45.71875 -31.726562 45.71875 -24.4375 C 45.71875 -16.382812 43.691406 -10.15625 39.640625 -5.75 C 35.597656 -1.34375 29.863281 0.859375 22.4375 0.859375 C 15.675781 0.859375 10.445312 -1.160156 6.75 -5.203125 C 3.0625 -9.253906 1.21875 -15 1.21875 -22.4375 C 1.21875 -30.382812 3.242188 -36.523438 7.296875 -40.859375 C 11.347656 -45.203125 17.085938 -47.375 24.515625 -47.375 Z M 23.21875 -35.875 C 21.351562 -35.875 19.941406 -35.550781 18.984375 -34.90625 C 18.023438 -34.257812 17.335938 -33.117188 16.921875 -31.484375 C 16.515625 -29.859375 16.3125 -27.488281 16.3125 -24.375 C 16.3125 -20.394531 16.523438 -17.375 16.953125 -15.3125 C 17.390625 -13.25 18.125 -11.8125 19.15625 -11 C 20.1875 -10.1875 21.707031 -9.78125 23.71875 -9.78125 C 25.59375 -9.78125 27.007812 -10.101562 27.96875 -10.75 C 28.925781 -11.394531 29.609375 -12.539062 30.015625 -14.1875 C 30.421875 -15.84375 30.625 -18.226562 30.625 -21.34375 C 30.625 -25.28125 30.40625 -28.273438 29.96875 -30.328125 C 29.539062 -32.390625 28.8125 -33.828125 27.78125 -34.640625 C 26.75 -35.460938 25.226562 -35.875 23.21875 -35.875 Z M 23.21875 -35.875 "/></g></g></g><g fill="#ffffff" fill-opacity="1"><g transform="translate(294.606843, 57.139692)"><g><path d="M 34.9375 -18.328125 C 38.382812 -12.960938 41.835938 -7.976562 45.296875 -3.375 L 45.078125 -1.796875 C 40.191406 -0.304688 35.375 0.578125 30.625 0.859375 L 29.265625 -0.28125 L 28.390625 -2.078125 C 28.015625 -2.847656 27.25 -4.46875 26.09375 -6.9375 C 24.945312 -9.40625 23.941406 -11.71875 23.078125 -13.875 L 18.265625 -13.875 L 18.765625 0 L 4.3125 0 L 5.03125 -13.65625 L 4.3125 -46.515625 L 26.390625 -46.578125 C 31.609375 -46.578125 35.628906 -45.34375 38.453125 -42.875 C 41.285156 -40.414062 42.703125 -36.859375 42.703125 -32.203125 C 42.703125 -29.472656 42.019531 -26.910156 40.65625 -24.515625 C 39.289062 -22.117188 37.382812 -20.054688 34.9375 -18.328125 Z M 27.53125 -30.765625 C 27.53125 -32.679688 27.039062 -34.109375 26.0625 -35.046875 C 25.082031 -35.984375 23.488281 -36.5 21.28125 -36.59375 L 18.6875 -36.375 L 18.40625 -24.375 L 23.65625 -24.078125 C 25 -24.703125 25.976562 -25.539062 26.59375 -26.59375 C 27.21875 -27.65625 27.53125 -29.046875 27.53125 -30.765625 Z M 27.53125 -30.765625 "/></g></g></g><g fill="#ffffff" fill-opacity="1"><g transform="translate(338.096249, 57.139692)"><g><path d="M 36.875 -45.5 L 36.09375 -35.015625 L 26.59375 -35.4375 L 25.734375 -35.4375 L 25.375 -15.09375 L 25.953125 0 L 11.578125 0 L 12.296875 -13.65625 L 11.9375 -35.4375 L 11 -35.4375 L 1.4375 -35.015625 L 0.578125 -36.015625 L 1.359375 -46.515625 L 36.09375 -46.515625 Z M 36.875 -45.5 "/></g></g></g><g fill="#ffffff" fill-opacity="1"><g transform="translate(373.534657, 57.139692)"><g><path d="M 37.171875 -11.5 L 37.953125 -10.5 L 37.09375 0 L 4.3125 0 L 5.03125 -13.65625 L 4.3125 -46.515625 L 37.671875 -46.515625 L 38.46875 -45.5 L 37.53125 -35.015625 L 26.09375 -35.4375 L 18.6875 -35.4375 L 18.546875 -28.90625 L 25.671875 -28.90625 L 33.140625 -29.109375 L 33.9375 -28.109375 L 33.0625 -17.609375 L 24.734375 -17.828125 L 18.265625 -17.828125 L 18.1875 -15.09375 L 18.328125 -11.078125 L 25.234375 -11.078125 Z M 37.171875 -11.5 "/></g></g></g></g></g></svg>